HIERARCHY
ROOT Hips
{
	OFFSET 0.000000 89.005402 0.000000
	CHANNELS 6 Xposition Yposition Zposition Xrotation Yrotation Zrotation
	JOINT Spine
	{
		OFFSET 0.116900 10.681000 0.373400
		CHANNELS 3 Xrotation Yrotation Zrotation
		JOINT Spine1
		{
			OFFSET 0.000000 13.840401 0.053500
			CHANNELS 3 Xrotation Yrotation Zrotation
			JOINT Spine2
			{
				OFFSET 0.000000 14.712700 -0.366200
				CHANNELS 3 Xrotation Yrotation Zrotation
				JOINT Neck
				{
					OFFSET 0.000000 35.415497 -3.314200
					CHANNELS 3 Xrotation Yrotation Zrotation
					JOINT Head
					{
						OFFSET 0.000000 16.899200 1.218300
						CHANNELS 3 Xrotation Yrotation Zrotation
						JOINT HeadTop_End
						{
							OFFSET 0.000000 22.206207 2.192500
							CHANNELS 3 Xrotation Yrotation Zrotation
							End Site
							{
								OFFSET 0.000000 22.314178 0.000000
							}
						}
					}
				}
				JOINT LeftShoulder
				{
					OFFSET 12.896400 26.716293 -4.548400
					CHANNELS 3 Xrotation Yrotation Zrotation
					JOINT LeftArm
					{
						OFFSET 19.027000 -4.857010 -1.718400
						CHANNELS 3 Xrotation Yrotation Zrotation
						JOINT LeftForeArm
						{
							OFFSET 24.179897 0.000000 0.000000
							CHANNELS 3 Xrotation Yrotation Zrotation
							JOINT LeftHand
							{
								OFFSET 27.156403 0.000000 0.000000
								CHANNELS 3 Xrotation Yrotation Zrotation
								JOINT LeftHandIndex1
								{
									OFFSET 16.441200 0.000000 0.000000
									CHANNELS 3 Xrotation Yrotation Zrotation
									JOINT LeftHandIndex2
									{
										OFFSET 4.821899 0.000000 0.000000
										CHANNELS 3 Xrotation Yrotation Zrotation
										JOINT LeftHandIndex3
										{
											OFFSET 6.386497 0.000000 0.000000
											CHANNELS 3 Xrotation Yrotation Zrotation
											JOINT LeftHandIndex4
											{
												OFFSET 5.188988 0.000000 0.000000
												CHANNELS 3 Xrotation Yrotation Zrotation
												End Site
												{
													OFFSET -0.178703 5.185913 0.000177
												}
											}
										}
									}
								}
								JOINT LeftHandThumb1
								{
									OFFSET 6.534897 -5.032593 5.900300
									CHANNELS 3 Xrotation Yrotation Zrotation
									JOINT LeftHandThumb2
									{
										OFFSET 3.818176 -2.204422 2.204423
										CHANNELS 3 Xrotation Yrotation Zrotation
										JOINT LeftHandThumb3
										{
											OFFSET 3.252098 -1.877594 1.877601
											CHANNELS 3 Xrotation Yrotation Zrotation
											JOINT LeftHandThumb4
											{
												OFFSET 5.251778 -3.032120 3.032117
												CHANNELS 3 Xrotation Yrotation Zrotation
												End Site
												{
													OFFSET 0.000023 6.780014 0.000000
												}
											}
										}
									}
								}
							}
						}
					}
				}
				JOINT RightShoulder
				{
					OFFSET -12.896300 26.716293 -4.548400
					CHANNELS 3 Xrotation Yrotation Zrotation
					JOINT RightArm
					{
						OFFSET -19.027000 -4.857010 -1.718400
						CHANNELS 3 Xrotation Yrotation Zrotation
						JOINT RightForeArm
						{
							OFFSET -24.179897 0.000000 0.000000
							CHANNELS 3 Xrotation Yrotation Zrotation
							JOINT RightHand
							{
								OFFSET -27.156403 0.000000 0.000000
								CHANNELS 3 Xrotation Yrotation Zrotation
								JOINT RightHandThumb1
								{
									OFFSET -6.591202 -4.852203 5.988100
									CHANNELS 3 Xrotation Yrotation Zrotation
									JOINT RightHandThumb2
									{
										OFFSET -3.818176 -2.204422 2.204423
										CHANNELS 3 Xrotation Yrotation Zrotation
										JOINT RightHandThumb3
										{
											OFFSET -3.252098 -1.877594 1.877601
											CHANNELS 3 Xrotation Yrotation Zrotation
											JOINT RightHandThumb4
											{
												OFFSET -5.251778 -3.032120 3.032117
												CHANNELS 3 Xrotation Yrotation Zrotation
												End Site
												{
													OFFSET -0.000023 6.780014 0.000000
												}
											}
										}
									}
								}
								JOINT RightHandIndex1
								{
									OFFSET -16.029404 0.000000 0.000000
									CHANNELS 3 Xrotation Yrotation Zrotation
									JOINT RightHandIndex2
									{
										OFFSET -5.213303 0.000000 0.000000
										CHANNELS 3 Xrotation Yrotation Zrotation
										JOINT RightHandIndex3
										{
											OFFSET -6.386528 0.000000 0.000000
											CHANNELS 3 Xrotation Yrotation Zrotation
											JOINT RightHandIndex4
											{
												OFFSET -5.189026 0.000000 0.000000
												CHANNELS 3 Xrotation Yrotation Zrotation
												End Site
												{
													OFFSET 0.236702 5.183624 0.001972
												}
											}
										}
									}
								}
							}
						}
					}
				}
			}
		}
	}
	JOINT LeftUpLeg
	{
		OFFSET 14.073000 -7.904099 -1.463000
		CHANNELS 3 Xrotation Yrotation Zrotation
		JOINT LeftLeg
		{
			OFFSET -0.109806 -34.073280 4.093200
			CHANNELS 3 Xrotation Yrotation Zrotation
			JOINT LeftFoot
			{
				OFFSET 0.109806 -29.899420 -6.319000
				CHANNELS 3 Xrotation Yrotation Zrotation
				JOINT LeftToeBase
				{
					OFFSET 1.551100 -14.988700 20.535801
					CHANNELS 3 Xrotation Yrotation Zrotation
					JOINT LeftToe_End
					{
						OFFSET 0.221200 0.570800 13.248301
						CHANNELS 3 Xrotation Yrotation Zrotation
						End Site
						{
							OFFSET 0.000000 13.262435 0.000000
						}
					}
				}
			}
		}
	}
	JOINT RightUpLeg
	{
		OFFSET -13.839300 -7.904099 -1.463000
		CHANNELS 3 Xrotation Yrotation Zrotation
		JOINT RightLeg
		{
			OFFSET 0.109694 -34.073219 4.093300
			CHANNELS 3 Xrotation Yrotation Zrotation
			JOINT RightFoot
			{
				OFFSET -0.109694 -29.899384 -6.319200
				CHANNELS 3 Xrotation Yrotation Zrotation
				JOINT RightToeBase
				{
					OFFSET -1.551100 -14.988700 20.535801
					CHANNELS 3 Xrotation Yrotation Zrotation
					JOINT RightToe_End
					{
						OFFSET -0.221200 0.570900 13.248299
						CHANNELS 3 Xrotation Yrotation Zrotation
						End Site
						{
							OFFSET 0.000000 13.262440 0.000000
						}
					}
				}
			}
		}
	}
}
MOTION
Frames: 8
Frame Time: 0.033333
-0.065277 78.451126 0.751454 5.448757 2.945927 -3.564902 4.913525 1.356271 1.936626 9.857120 2.800248 1.722122 9.857122 2.800249 1.722122 -7.496568 -3.144979 -0.434787 -14.101444 -7.360287 -5.253898 -0.000001 -0.000000 -0.000000 1.084063 -1.226535 -9.108710 21.951232 16.129905 -69.744605 5.201926 -103.989876 -6.123323 11.822900 -20.243316 2.841626 -4.473762 -5.484355 -78.092025 -6.119757 -4.169212 -86.100852 -0.000005 0.000000 0.000008 -0.000000 0.000001 -0.000002 -3.691982 -7.086325 -6.633079 5.370473 13.667913 2.734628 -0.000001 -0.000004 -0.000013 0.000002 0.000001 -0.000001 0.776480 6.054090 9.529804 5.506717 -10.523608 55.529301 -70.896510 86.710488 75.613534 -0.541009 5.793819 2.436032 1.189988 2.334165 7.237138 4.247029 -11.103152 -2.569509 -0.000003 0.000002 -0.000004 -0.000000 -0.000001 -0.000001 3.425642 2.972066 72.847021 -5.581799 2.947734 92.129621 -0.000009 0.000013 -0.000009 0.000000 0.000003 0.000002 -41.132734 6.423031 -1.668103 98.295404 14.538056 4.075284 -11.823698 -1.129561 6.301965 -0.906449 -2.886966 -6.627561 -0.000003 0.000000 -0.000000 -17.578909 -5.974553 5.607779 50.166373 -0.912548 -1.810891 -30.976663 0.881481 -1.592493 -10.243696 12.977169 -1.675955 0.000000 0.000000 -0.000000 
3.137621 81.863487 13.165668 2.609810 -6.020437 4.514013 5.575353 3.973737 0.773206 11.392537 7.305142 -1.410026 11.392539 7.305136 -1.410027 -4.990612 -5.360167 1.530680 -13.429151 -10.374629 -5.821468 0.000001 -0.000000 0.000000 -0.560446 0.636267 -1.948174 36.657130 20.231502 -77.095350 24.671273 -107.991520 3.454737 11.155733 -19.192287 14.277103 -3.889050 -5.437211 -77.820758 -6.190857 -4.010451 -85.788617 -0.000008 -0.000002 0.000004 0.000000 0.000002 -0.000000 -3.153483 -3.565177 -5.947186 4.454527 13.731230 0.911904 -0.000001 -0.000007 -0.000012 0.000000 -0.000003 -0.000000 -0.517641 13.077628 6.633820 -13.753569 8.297379 48.575376 -157.416572 83.862272 159.840087 -3.326847 -10.730782 -1.615083 -5.127099 -20.210929 8.698625 -1.821757 -0.330429 -3.116515 0.000002 0.000002 0.000001 0.000003 -0.000001 -0.000001 -0.244571 5.038800 81.095594 -5.398667 2.828470 89.888978 -0.000007 0.000014 -0.000011 0.000000 -0.000001 0.000001 -63.331283 -1.171662 2.135163 107.021619 16.380834 2.486578 -7.966235 -3.965059 -1.529230 -0.843378 -2.701754 -6.201022 0.000000 0.000000 -0.000000 -7.648997 -4.353722 -8.315240 50.972701 7.182296 -4.244006 -24.970041 -3.554489 2.827140 -36.057846 13.468118 0.978519 0.000002 0.000000 0.000000 
6.500504 86.998871 26.195833 -0.171712 -8.170639 13.343280 5.587042 6.394690 -1.265138 11.606599 11.182130 -4.565304 11.606599 11.182132 -4.565304 -0.829228 -7.591782 2.479098 -10.457745 -15.680149 -4.725057 0.000000 0.000000 -0.000000 -2.326764 -3.772457 6.788839 49.803110 21.988735 -85.477946 8.143592 -113.770038 -14.323737 23.690342 -26.930171 26.911203 -3.153748 -5.300324 -77.171159 -6.484694 -3.607409 -85.598519 -0.000008 -0.000000 0.000006 -0.000004 -0.000001 0.000002 -4.541292 0.614525 -6.634493 1.201447 15.293591 -1.585158 -0.000003 -0.000006 -0.000010 -0.000000 -0.000001 -0.000000 -0.180662 14.182671 -6.129691 -28.853984 20.351153 49.152654 -178.188748 84.068953 178.100188 2.047849 -0.130019 -12.324440 -18.310646 -43.375219 4.518790 -0.559888 -0.240155 -0.197374 -0.000001 0.000001 -0.000004 -0.000002 -0.000000 -0.000000 -5.346054 6.324153 81.853329 -5.005520 2.506048 84.410852 -0.000005 0.000017 -0.000009 -0.000001 0.000002 0.000001 -88.154936 -9.565042 8.235811 103.067903 14.226265 0.567976 -2.199221 -3.557093 -6.271945 -0.720416 -2.315353 -5.313627 -0.000000 -0.000001 0.000001 -3.926756 -4.232226 -25.901394 48.860687 10.327079 -1.998123 3.909923 -3.849443 8.093997 -59.365832 15.959480 1.293006 0.000000 -0.000000 0.000000 
9.015785 94.272606 37.785561 -2.648186 -1.694410 19.146180 4.504231 7.194749 -2.840398 9.400867 12.734947 -6.153206 9.400867 12.734949 -6.153209 1.357825 -9.007657 -0.213350 -3.739251 -23.937187 0.554467 0.000001 0.000000 -0.000000 -0.844623 -15.102971 6.082059 56.655347 23.566690 -88.882467 -7.653377 -116.293547 -25.514969 34.960730 -17.830043 49.287926 -2.448126 -5.016342 -73.695050 -6.741275 -3.089011 -84.392404 -0.000006 -0.000004 0.000006 -0.000000 0.000003 -0.000001 -6.340695 4.122060 -6.139225 -3.512047 17.811106 -4.202171 0.000002 -0.000005 -0.000012 0.000001 0.000001 -0.000000 -1.376534 5.018165 -13.416218 -35.848378 28.634487 48.355390 -232.253370 84.464004 236.742526 11.799514 9.312281 -16.899116 -11.085424 -31.314621 7.142720 -3.895370 -2.419585 2.469903 -0.000003 0.000001 -0.000004 -0.000000 0.000000 -0.000001 -7.898941 5.722780 76.715612 -4.460349 2.053377 76.310015 -0.000008 0.000014 -0.000012 -0.000000 0.000000 -0.000000 -95.815663 -8.449898 8.099693 68.502631 23.611395 -2.990114 -7.402535 -1.608992 -4.150237 1.338302 -1.872683 -4.156908 0.000001 0.000000 -0.000000 8.252816 -13.133133 -25.695062 17.251651 13.860250 -2.373677 45.683918 4.175881 7.858616 -84.110119 24.408799 8.586304 -0.000001 0.000002 0.000000 
11.448193 102.150780 47.961716 -4.771991 4.698005 20.224511 3.050942 6.644980 -3.054700 6.360157 12.183664 -5.724974 6.360159 12.183673 -5.724974 2.510222 -9.818692 -2.733320 2.966475 -30.202349 7.232124 -0.000000 0.000000 0.000000 0.687776 -25.514204 -0.014107 52.881585 24.336618 -85.418940 -17.563206 -116.300363 -29.769680 33.607806 -9.324365 53.355805 -1.417932 -4.715814 -72.673144 -8.019514 -2.324203 -89.857696 -0.000007 -0.000002 0.000002 0.000001 -0.000000 -0.000002 -7.810104 5.529503 -3.749942 -9.106141 19.437600 -5.879977 -0.000002 -0.000006 -0.000015 0.000001 -0.000003 -0.000002 -2.516347 -2.502419 -9.029374 -42.101781 35.413192 53.546866 -294.978604 79.002537 304.848719 18.513180 10.163844 -21.014098 12.190663 0.908829 8.937212 -15.553632 -6.964980 -7.242866 0.000000 0.000002 -0.000006 -0.000000 0.000001 -0.000001 -10.066999 6.727246 65.581188 -3.878785 1.542536 66.761718 -0.000007 0.000014 -0.000010 -0.000001 -0.000000 -0.000000 -87.372142 -3.720433 3.099664 29.752926 36.881577 -1.026430 -2.406597 -1.703814 8.165297 -7.807661 -1.010714 -2.917380 -0.000000 0.000000 -0.000001 6.017432 -12.456461 -20.676214 23.956311 7.685941 -4.816144 32.736376 3.906742 14.160803 -32.995404 15.769554 -15.751060 0.000001 0.000000 0.000000 
14.264055 108.541969 57.349007 -9.394725 3.759894 20.949020 2.719517 5.161431 -2.913179 5.516535 8.905989 -4.632076 5.516532 8.905985 -4.632075 7.205721 -9.170574 0.516340 0.507472 -27.672139 7.259580 -0.000000 0.000000 -0.000001 0.681935 -33.971831 -6.731896 41.301631 25.260292 -76.429298 -17.287460 -112.683033 -25.809306 25.631417 -3.371147 48.647309 0.282599 -4.159786 -69.217076 -8.166508 -1.838750 -87.946431 -0.000005 -0.000004 0.000009 0.000000 0.000001 -0.000007 -9.803631 0.733053 0.899926 -15.424939 18.137803 -5.214860 -0.000002 -0.000005 -0.000014 -0.000002 -0.000000 -0.000000 1.387766 10.269238 -3.905119 -43.734278 29.706695 56.617108 -335.089873 66.105235 341.705048 19.490437 12.266755 -30.358074 34.355332 29.269191 1.137666 -22.648556 -11.991668 -16.309407 -0.000000 0.000001 -0.000005 0.000002 0.000000 0.000001 -12.381161 9.140015 56.174402 -3.865708 1.119585 61.498866 -0.000008 0.000014 -0.000010 0.000000 -0.000000 -0.000003 -85.760251 -2.863810 4.253708 45.752637 39.898782 -3.929602 -7.405936 -0.525102 2.639898 -25.912409 0.065881 -1.749648 0.000000 -0.000000 -0.000002 -0.514610 -11.111774 -20.444064 42.423241 2.628369 -1.239205 32.884171 3.190889 11.103822 -2.694527 3.791627 -0.348614 0.000002 0.000000 -0.000000 
17.074196 113.280304 65.853424 -15.491265 0.636557 21.777145 3.359848 3.057452 -2.935889 6.689695 4.938794 -3.665938 6.689693 4.938789 -3.665936 9.856702 -7.608998 2.347060 -1.267989 -23.376174 6.766622 0.000000 0.000000 -0.000000 -2.303666 -38.304094 -18.457808 17.975521 23.293532 -50.888055 -34.723971 -103.948458 -46.485567 22.772334 1.018971 50.059057 1.081932 -3.744325 -66.930820 -8.381843 -1.464778 -87.227656 -0.000007 0.000000 0.000005 0.000002 -0.000002 0.000001 -9.090327 -2.357000 6.475278 -19.768994 16.052703 -5.660424 -0.000005 -0.000004 -0.000013 -0.000002 0.000001 -0.000000 -0.695596 26.614606 15.697380 -35.925023 20.795660 47.501968 -347.651356 48.939811 355.956101 19.921737 14.403622 -40.019537 34.099637 28.333959 -4.142604 -23.301008 -11.979370 -13.831887 -0.000001 0.000002 -0.000004 -0.000001 -0.000001 0.000002 -14.784296 9.314237 56.336333 -3.672517 0.809549 55.876750 -0.000006 0.000015 -0.000010 -0.000000 -0.000000 -0.000002 -79.016963 -1.779994 4.489868 70.961998 31.224131 -2.580949 -21.362945 3.913437 -12.904571 -30.024777 0.216347 -0.889362 -0.000000 -0.000001 -0.000001 -9.971675 -8.982769 -20.327235 64.937668 -7.163858 0.466094 39.215897 1.474367 7.319953 -0.866416 1.219449 -0.109082 0.000000 -0.000000 0.000001 
18.698734 119.284210 74.231995 -19.030195 -0.521989 20.808972 4.112782 1.235794 -2.734228 8.181895 2.072154 -2.323653 8.181893 2.072157 -2.323653 6.297128 -6.613358 0.600819 -0.499440 -21.912157 8.322535 -0.000000 0.000001 0.000002 -5.213413 -36.951921 -28.417094 -6.056708 1.618490 -28.462213 -121.946648 -105.962544 -138.848443 20.746399 2.188331 52.319703 0.710158 -3.848974 -68.173477 -8.601160 -1.268086 -88.024404 -0.000009 -0.000002 0.000009 -0.000002 0.000001 0.000002 -10.028452 3.462009 5.518444 -20.247846 20.029856 -7.785779 -0.000001 -0.000006 -0.000013 0.000000 0.000001 -0.000001 -2.310989 29.555417 21.942719 -28.056348 8.359933 45.945125 -353.048845 39.101627 359.191179 20.235074 16.895173 -36.685697 25.737283 19.344574 -7.121016 -20.124975 -9.841211 -7.534535 0.000001 0.000003 -0.000003 0.000000 0.000004 -0.000002 -15.494177 9.501318 55.685200 -3.498614 0.677953 52.743646 -0.000006 0.000013 -0.000007 -0.000000 0.000001 -0.000002 -66.670078 0.579204 1.772831 80.743880 27.866272 -0.087450 -33.052583 7.285825 -18.858275 -32.980279 0.125941 -0.286598 0.000001 0.000000 -0.000001 -27.172733 -6.464704 -19.001241 87.514531 -13.853078 0.569577 37.384245 0.691132 3.323014 -0.000013 0.000001 -0.000000 0.000000 0.000000 -0.000001 
